<?xml version="1.0" encoding="UTF-8"?>
<svg width="2165px" height="1310px" viewBox="0 0 2165 1310" version="1.1" xmlns="http://www.w3.org/2000/svg" xmlns:xlink="http://www.w3.org/1999/xlink">
    <!-- Generator: Sketch 51.2 (57519) - http://www.bohemiancoding.com/sketch -->
    <title>Path</title>
    <desc>Created with Sketch.</desc>
    <defs></defs>
    <g id="Page-1" stroke="none" stroke-width="1" fill="none" fill-rule="evenodd">
        <polyline id="Path" stroke="#000000" stroke-width="2" points="937.558172 704.151572 1181.1797 699.291228 1181.1797 574.669761 891.81932 558.847509 906.730258 736.707391 1276.44638 740.969992 1221.90468 528.408292 839.694734 503.401034 839.694734 774.339135 1358.25239 780.489692 1290.25655 470.770089 784.395244 450.205081 772.86499 828.243888 1408.27344 836.638436 1382.95261 434.673535 655.071046 381.915395 676.664794 894.865133 1518.82812 906.50847 1506.07045 354.407117 505.071999 333.756265 546.559426 1016.59158 1616.09642 1016.59158 1629.13267 285.054256 349.429863 285.054256 414.739701 1137.86087 1751.48772 1137.86087 1730.29475 149.79181 133.543448 149.79181 219.511895 1213.01645 1914.1382 1213.01645 2008.9591 2 1 78.2860689 1 1262.97751 2105.61689 1308.64514 2163.55624 736.707391"></polyline>
    </g>
</svg>